# xmcd
#
# Track frame offsets:
#	150
#	19201
#	34116
#	54952
#	74274
#	93285
#	111567
#	131323
#	150312
#	171671
#	187661
#	203985
#
# Disc length: 2997 seconds
#
# Revision: 29
# Processed by: cddbd v1.5.2PL0 Copyright (c) Steve Scherf et al.
# Submitted via: audiograbber 1.83.01
#
DISCID=9b0bb30c
DTITLE=Bon Jovi - Lost Highway
DYEAR=2007
DGENRE=Rock
TTITLE0=Bon Jovi - Lost Highway
TTITLE1=Bon Jovi - Summertime
TTITLE2=Bon Jovi - (You Want To) Make A Memory
TTITLE3=Bon Jovi - Whole Lot Of Leavin'
TTITLE4=Bon Jovi with Big and Rich - We Got It Going On
TTITLE5=Bon Jovi - Any Other Day
TTITLE6=Bon Jovi - Seat Next To You
TTITLE7=Bon Jovi - Everybody's Broken
TTITLE8=Bon Jovi feat. LeAnn Rimes - Till We Ain't Strangers Anymore
TTITLE9=Bon Jovi - The Last Night
TTITLE10=Bon Jovi - One Step Closer
TTITLE11=Bon Jovi - I Love This Town
EXTD=
EXTT0=
EXTT1=
EXTT2=
EXTT3=
EXTT4=
EXTT5=
EXTT6=
EXTT7=
EXTT8=
EXTT9=
EXTT10=
EXTT11=
PLAYORDER=
